<svg width="379" height="302" viewBox="0 0 379 302" fill="none" xmlns="http://www.w3.org/2000/svg">
<g clip-path="url(#clip0_255_2)">
<path d="M41.71 39.37C41 18.89 56.96 0 78.53 0H299.58C321.15 0 337.11 18.89 336.4 39.37C335.71 59.05 336.6 84.54 343.02 105.32C349.44 126.1 360.31 139.32 378.08 141.04V160.24C360.31 161.93 349.45 175.11 343.02 195.96C336.59 216.81 335.72 242.23 336.4 261.96C337.11 282.44 321.15 301.33 299.58 301.33H78.53C56.96 301.33 41 282.44 41.71 261.96C42.39 242.28 41.5 216.79 35.09 195.96C28.68 175.13 17.78 161.96 0 160.24V141.04C17.77 139.35 28.65 126.17 35.09 105.32C41.53 84.47 42.39 59.05 41.71 39.37Z" fill="url(#paint0_linear_255_2)"/>
<path d="M197.24 230.73C232.17 230.73 253.24 213.63 253.24 185.42C253.24 164.1 238.24 148.66 215.93 146.22V145.33C232.31 142.66 245.17 127.45 245.17 110.46C245.17 86.25 226.06 70.46 196.93 70.46H131.37V230.73H197.24ZM156.85 90.81H190.75C209.18 90.81 219.65 99.0299 219.65 113.91C219.65 129.79 207.48 138.67 185.41 138.67H156.85V90.81ZM156.85 210.41V157.64H190.52C214.64 157.64 227.15 166.52 227.15 183.85C227.15 201.18 214.99 210.41 192.04 210.41H156.85Z" fill="url(#paint1_linear_255_2)" stroke="white"/>
</g>
<defs>
<linearGradient id="paint0_linear_255_2" x1="38.07" y1="30.79" x2="368.45" y2="293.04" gradientUnits="userSpaceOnUse">
<stop stop-color="white"/>
</linearGradient>
<linearGradient id="paint1_linear_255_2" x1="139.67" y1="82.94" x2="213.52" y2="207.83" gradientUnits="userSpaceOnUse">
<stop/>
</linearGradient>
<clipPath id="clip0_255_2">
<rect width="378.08" height="301.28" fill="white"/>
</clipPath>
</defs>
</svg>
