<svg width="42" height="42" viewBox="0 0 42 42" fill="none" xmlns="http://www.w3.org/2000/svg">
<path d="M1.95117 0C1.44326 0 0.923242 0.186133 0.554688 0.554688C0.186133 0.923242 0 1.44326 0 1.95117V40.0469C0 40.5549 0.186108 41.0765 0.554688 41.4453C0.923267 41.8142 1.44326 42 1.95117 42H40.0469C40.5549 42 41.0765 41.8139 41.4453 41.4453C41.8142 41.0767 42 40.5567 42 40.0488V1.95117C42 1.44326 41.8139 0.923242 41.4453 0.554688C41.0768 0.186133 40.5567 0 40.0488 0H1.95117ZM2 2H40V40H2V2ZM16.4551 15.3555C14.4901 15.3555 12.375 16.8404 12.375 20.6504C12.375 23.5154 13.6055 25.6445 16.1855 25.6445C16.8755 25.6445 17.4298 25.5393 17.7148 25.4043L17.5195 23.7559C17.2795 23.8309 16.9042 23.9043 16.5742 23.9043C15.3742 23.9043 14.4609 22.9599 14.4609 20.5449C14.4609 18.0399 15.4642 17.0801 16.5742 17.0801C17.0092 17.0801 17.2652 17.1704 17.4902 17.2754L17.8203 15.625C17.6253 15.49 17.1451 15.3555 16.4551 15.3555ZM21.5996 15.3555C19.4846 15.3555 18.4043 16.7042 18.4043 18.3242C18.4043 19.2392 18.9305 20.3045 20.3105 21.1445C21.1655 21.6995 21.6152 22.0599 21.6152 22.7949C21.6152 23.4549 21.1644 23.9355 20.2344 23.9355C19.6644 23.9355 18.9753 23.7699 18.5703 23.5449L18.2852 25.2402C18.6152 25.4352 19.4107 25.6445 20.2207 25.6445C22.2007 25.6445 23.5645 24.4309 23.5645 22.5859C23.5645 21.5209 23.0694 20.4995 21.7344 19.6895C20.6394 19.0295 20.3398 18.7152 20.3398 18.1152C20.3398 17.5752 20.7459 17.0645 21.5859 17.0645C22.1559 17.0645 22.59 17.2302 22.875 17.4102L23.1895 15.7148C22.8895 15.5348 22.2596 15.3555 21.5996 15.3555ZM27.5098 15.3555C25.3948 15.3555 24.3145 16.7042 24.3145 18.3242C24.3145 19.2392 24.8407 20.3045 26.2207 21.1445C27.0757 21.6995 27.5254 22.0599 27.5254 22.7949C27.5254 23.4549 27.0745 23.9355 26.1445 23.9355C25.5745 23.9355 24.8855 23.7699 24.4805 23.5449L24.1953 25.2402C24.5253 25.4352 25.3209 25.6445 26.1309 25.6445C28.1109 25.6445 29.4746 24.4309 29.4746 22.5859C29.4746 21.5209 28.9795 20.4995 27.6445 19.6895C26.5495 19.0295 26.25 18.7152 26.25 18.1152C26.25 17.5752 26.6541 17.0645 27.4941 17.0645C28.0641 17.0645 28.5002 17.2302 28.7852 17.4102L29.0996 15.7148C28.7996 15.5348 28.1698 15.3555 27.5098 15.3555Z" fill="white"/>
</svg>
