<svg width="35" height="35" viewBox="0 0 35 35" fill="none" xmlns="http://www.w3.org/2000/svg">
<path d="M32.7031 0.410156H2.29687C1.25098 0.410156 0.410156 1.25781 0.410156 2.29687V32.7031C0.410156 33.749 1.25781 34.5898 2.29687 34.5898H18.6689V21.3691H14.2324V16.2012H18.6689V12.3936C18.6689 7.97754 21.3623 5.57129 25.2998 5.57129C27.1865 5.57129 28.8066 5.71484 29.2783 5.77637V10.3906H26.5645C24.4248 10.3906 24.0078 11.4092 24.0078 12.9063V16.2012H29.1348L28.4648 21.376H24.0078V34.5898H32.7031C33.7422 34.5898 34.5898 33.7422 34.5898 32.7031V2.29687C34.5898 1.25098 33.7422 0.410156 32.7031 0.410156Z" fill="white"/>
</svg>
