<svg width="125" height="125" viewBox="0 0 125 125" fill="none" xmlns="http://www.w3.org/2000/svg">
<path d="M26.0416 28.6458C26.0416 23.8112 27.9622 19.1745 31.3808 15.7559C34.7995 12.3372 39.4361 10.4167 44.2708 10.4167H62.5V46.875H44.2708C39.4361 46.875 34.7995 44.9544 31.3808 41.5358C27.9622 38.1172 26.0416 33.4805 26.0416 28.6458Z" stroke="white" stroke-width="2" stroke-linecap="round" stroke-linejoin="round"/>
<path d="M62.5 10.4167H80.7292C83.1231 10.4167 85.4935 10.8882 87.7052 11.8043C89.9168 12.7204 91.9264 14.0631 93.6191 15.7559C95.3119 17.4486 96.6546 19.4582 97.5707 21.6698C98.4868 23.8815 98.9583 26.2519 98.9583 28.6458C98.9583 31.0397 98.4868 33.4102 97.5707 35.6218C96.6546 37.8335 95.3119 39.8431 93.6191 41.5358C91.9264 43.2285 89.9168 44.5713 87.7052 45.4874C85.4935 46.4035 83.1231 46.875 80.7292 46.875H62.5V10.4167Z" stroke="white" stroke-width="2" stroke-linecap="round" stroke-linejoin="round"/>
<path d="M62.5 65.1042C62.5 62.7103 62.9715 60.3398 63.8876 58.1282C64.8037 55.9165 66.1465 53.9069 67.8392 52.2142C69.5319 50.5215 71.5415 49.1787 73.7532 48.2626C75.9648 47.3465 78.3353 46.875 80.7292 46.875C83.1231 46.875 85.4935 47.3465 87.7052 48.2626C89.9168 49.1787 91.9264 50.5215 93.6191 52.2142C95.3119 53.9069 96.6546 55.9165 97.5707 58.1282C98.4868 60.3398 98.9583 62.7103 98.9583 65.1042C98.9583 67.4981 98.4868 69.8685 97.5707 72.0802C96.6546 74.2918 95.3119 76.3014 93.6191 77.9941C91.9264 79.6869 89.9168 81.0296 87.7052 81.9457C85.4935 82.8618 83.1231 83.3333 80.7292 83.3333C78.3353 83.3333 75.9648 82.8618 73.7532 81.9457C71.5415 81.0296 69.5319 79.6869 67.8392 77.9941C66.1465 76.3014 64.8037 74.2918 63.8876 72.0802C62.9715 69.8685 62.5 67.4981 62.5 65.1042V65.1042Z" stroke="white" stroke-width="2" stroke-linecap="round" stroke-linejoin="round"/>
<path d="M26.0416 101.563C26.0416 96.7278 27.9622 92.0912 31.3808 88.6725C34.7995 85.2539 39.4361 83.3333 44.2708 83.3333H62.5V101.563C62.5 106.397 60.5794 111.034 57.1608 114.452C53.7421 117.871 49.1055 119.792 44.2708 119.792C39.4361 119.792 34.7995 117.871 31.3808 114.452C27.9622 111.034 26.0416 106.397 26.0416 101.563Z" stroke="white" stroke-width="2" stroke-linecap="round" stroke-linejoin="round"/>
<path d="M26.0416 65.1042C26.0416 60.2695 27.9622 55.6328 31.3808 52.2142C34.7995 48.7956 39.4361 46.875 44.2708 46.875H62.5V83.3333H44.2708C39.4361 83.3333 34.7995 81.4128 31.3808 77.9941C27.9622 74.5755 26.0416 69.9388 26.0416 65.1042Z" stroke="white" stroke-width="2" stroke-linecap="round" stroke-linejoin="round"/>
</svg>
