<svg width="37" height="38" viewBox="0 0 37 38" fill="none" xmlns="http://www.w3.org/2000/svg">
<path d="M18.5 37.6852C28.7178 37.6852 37 29.2496 37 18.8426C37 8.43559 28.7178 0 18.5 0C8.28222 0 0 8.43559 0 18.8426C0 29.2496 8.28222 37.6852 18.5 37.6852ZM18.5 2.58026C27.3176 2.58026 34.4667 9.86056 34.4667 18.8426C34.4667 27.8234 27.3187 35.1049 18.5 35.1049C9.68128 35.1049 2.53334 27.8234 2.53334 18.8426C2.53334 9.86174 9.68244 2.58026 18.5 2.58026Z" fill="white"/>
<path d="M18.5 32.4999C25.9058 32.4999 31.909 26.3855 31.909 18.8426C31.909 11.2997 25.9058 5.18524 18.5 5.18524C11.0942 5.18524 5.09097 11.2997 5.09097 18.8426C5.09097 26.3855 11.0942 32.4999 18.5 32.4999ZM10.8503 21.311C12.062 21.311 12.6679 22.5452 12.6679 22.5452C13.7316 24.3835 15.6233 24.0879 16.3031 23.7793C16.3031 23.1623 16.5679 22.2295 16.909 21.9281C14.2623 21.6242 12.0597 20.0768 12.0597 16.9913C12.0597 13.9058 12.6679 13.2887 13.2738 12.6716C13.1512 12.3678 12.6448 11.2431 13.2923 9.58617C13.2923 9.58617 14.4832 9.58616 15.6949 11.4374C16.295 10.8262 18.1184 10.8204 18.7243 10.8204C19.329 10.8204 21.1524 10.8262 21.7525 11.4374C22.9643 9.58616 24.1575 9.58617 24.1575 9.58617C24.805 11.2431 24.2986 12.3678 24.176 12.6716C24.7819 13.2887 25.3878 13.9058 25.3878 16.9913C25.3878 20.0768 23.1874 21.6242 20.5408 21.9281C20.8819 22.2295 21.1467 23.2906 21.1467 23.7793V28.099H18.7266H16.3031C16.3031 28.099 16.3101 26.6352 16.3031 25.6306C12.987 26.3572 12.062 23.7793 12.062 23.7793C11.4561 22.5452 10.8503 21.9281 10.8503 21.9281C9.6385 21.1944 10.8503 21.311 10.8503 21.311Z" fill="white"/>
</svg>
