<svg width="42" height="42" viewBox="0 0 42 42" fill="none" xmlns="http://www.w3.org/2000/svg">
<path d="M1.95117 0C1.44326 0 0.923242 0.186133 0.554688 0.554688C0.186133 0.923242 0 1.44326 0 1.95117V40.0469C0 40.5549 0.186108 41.0765 0.554688 41.4453C0.923267 41.8142 1.44326 42 1.95117 42H40.0469C40.5549 42 41.0765 41.8139 41.4453 41.4453C41.8142 41.0767 42 40.5567 42 40.0488V1.95117C42 1.44326 41.8139 0.923242 41.4453 0.554688C41.0768 0.186133 40.5567 0 40.0488 0H1.95117ZM2 2H40V40H2V2ZM8.43164 16.8906V27H10.3965V22.7715H12.4512V27H14.418V16.8906H12.4512V20.9414H10.3965V16.8906H8.43164ZM15.4668 16.8906V18.7051H17.252V27H19.2168V18.7051H21.0176V16.8906H15.4668ZM22.4121 16.8906L21.6777 27H23.373L23.5371 23.4883C23.5971 22.4833 23.6575 21.2093 23.6875 20.1133H23.7324C23.8824 21.2093 24.1527 22.4693 24.3477 23.2793L25.1875 26.834H26.582L27.4512 23.2207C27.6462 22.4407 27.9177 21.1952 28.0977 20.1152H28.1426C28.1126 21.1952 28.1874 22.5009 28.2324 23.4609L28.4121 27H30.168L29.5527 16.8906H27.4824L26.6875 20.5508C26.4175 21.8248 26.193 22.9668 26.043 24.0918H26.0137C25.8337 22.9508 25.578 21.8248 25.293 20.5508L24.4824 16.8906H22.4121ZM31.6074 16.8906V27H36.168V25.3359H33.5723V16.8906H31.6074Z" fill="white"/>
</svg>
