<svg width="42" height="42" viewBox="0 0 42 42" fill="none" xmlns="http://www.w3.org/2000/svg">
<path d="M1.95117 0C1.44326 0 0.923242 0.186133 0.554688 0.554688C0.186133 0.923242 0 1.44326 0 1.95117V40.0469C0 40.5549 0.186108 41.0765 0.554688 41.4453C0.923267 41.8142 1.44326 42 1.95117 42H40.0469C40.5549 42 41.0765 41.8139 41.4453 41.4453C41.8142 41.0767 42 40.5567 42 40.0488V1.95117C42 1.44326 41.8139 0.923242 41.4453 0.554688C41.0768 0.186133 40.5567 0 40.0488 0H1.95117ZM2 2H40V40H2V2ZM23.9395 15.8105C21.8245 15.8105 20.7441 17.1612 20.7441 18.7812C20.7441 19.6952 21.2704 20.7616 22.6504 21.6016C23.5054 22.1556 23.9551 22.517 23.9551 23.252C23.9551 23.912 23.5042 24.3906 22.5742 24.3906C22.0042 24.3906 21.3152 24.227 20.9102 24.002L20.625 25.6953C20.955 25.8903 21.7505 26.1016 22.5605 26.1016C24.5405 26.1016 25.9043 24.886 25.9043 23.041C25.9043 21.975 25.4092 20.9555 24.0742 20.1445C22.9792 19.4845 22.6797 19.1703 22.6797 18.5703C22.6797 18.0303 23.0858 17.5195 23.9258 17.5195C24.4958 17.5195 24.9298 17.6842 25.2148 17.8652L25.5293 16.1719C25.2293 15.9929 24.5995 15.8105 23.9395 15.8105ZM17.5508 15.9004V22.877C17.5508 24.181 17.07 24.4062 16.5 24.4062C16.245 24.4062 16.0505 24.392 15.8555 24.332L15.6895 25.9805C15.9145 26.0695 16.2747 26.1309 16.6797 26.1309C18.1197 26.1309 19.5293 25.6952 19.5293 22.7852V15.9004H17.5508Z" fill="white"/>
</svg>
