<svg width="37" height="37" viewBox="0 0 37 37" fill="none" xmlns="http://www.w3.org/2000/svg">
<path d="M33.9273 0.125H3.26406C1.58926 0.125 0.125 1.33086 0.125 2.98652V33.7168C0.125 35.382 1.58926 36.8654 3.26406 36.8654H33.9178C35.6021 36.8654 36.8654 35.3725 36.8654 33.7168V2.98652C36.875 1.33086 35.6021 0.125 33.9273 0.125ZM11.5137 30.75H6.25V14.3848H11.5137V30.75ZM9.06367 11.8965H9.02539C7.34102 11.8965 6.25 10.6428 6.25 9.07324C6.25 7.475 7.36973 6.25 9.09238 6.25C10.815 6.25 11.8678 7.46543 11.9061 9.07324C11.9061 10.6428 10.815 11.8965 9.06367 11.8965ZM30.75 30.75H25.4863V21.8018C25.4863 19.658 24.7207 18.1938 22.8162 18.1938C21.3615 18.1938 20.5002 19.1795 20.1174 20.1365C19.9738 20.4811 19.9355 20.95 19.9355 21.4285V30.75H14.6719V14.3848H19.9355V16.6625C20.7012 15.5715 21.8975 14.002 24.6824 14.002C28.1373 14.002 30.75 16.2797 30.75 21.1893V30.75V30.75Z" fill="white"/>
</svg>
