<svg width="397" height="397" viewBox="0 0 397 397" fill="none" xmlns="http://www.w3.org/2000/svg">
<path d="M78.8124 5.2245C41.5222 10.9969 10.9175 41.7524 5.22447 79.2689C3.5531 89.976 3.5531 307.024 5.22447 317.731C10.9175 355.478 41.5222 386.082 79.269 391.775C85.2676 392.764 104.709 392.915 198.274 392.915C272.318 392.915 312.038 392.609 315.988 392.081C354.493 386.916 386.011 356.01 391.779 317.731C393.451 307.024 393.451 89.976 391.779 79.2689C386.082 41.5222 355.478 10.9175 317.731 5.2245C307.782 3.70399 88.5349 3.70399 78.8124 5.2245ZM323.885 20.5646C350.92 28.2346 368.996 46.3854 376.364 73.1948L378.111 79.6501V198.5V317.35L375.983 324.869C368.845 350.614 350.619 368.841 324.873 375.979L317.354 378.107H198.5H79.6461L73.1909 376.36C59.0656 372.485 48.9659 366.717 39.3943 356.919C29.9774 347.427 23.7485 336.187 20.2549 322.594C18.9646 317.735 18.8892 309.533 18.8892 198.5C18.8892 87.471 18.9646 79.269 20.2549 74.4097C27.6232 45.5518 49.494 24.8164 77.9708 19.6554C82.3775 18.8217 106.904 18.6669 200.771 18.7423L318.104 18.8932L323.885 20.5646Z" fill="white"/>
<path d="M77.7484 191.211V291.914H88.3801H99.0117V258.88V225.845H127.413C157.486 225.845 162.425 225.389 171.234 222.125C176.931 219.922 184.069 215.289 188.17 211.037C196.904 201.847 202.069 184.684 202.827 162.051C203.51 141.471 201.763 131.371 195.308 118.004C188.932 104.864 179.285 96.5821 165.39 92.4811C161.44 91.2663 156.275 91.1155 119.37 90.8852L77.7524 90.5835V191.211H77.7484ZM158.935 112.534C176.173 118.231 183.616 134.027 182.251 162.429C181.568 177.467 178.606 188.932 173.898 194.478C170.936 197.972 164.024 202.299 158.859 203.971C154.758 205.185 151.416 205.336 126.659 205.336H99.0117V157.796V110.255L126.579 110.561C152.174 110.862 154.377 111.013 158.935 112.534Z" fill="white"/>
<path d="M261.913 145.417C250.749 147.545 241.789 152.404 236.092 159.542C219.231 180.881 225.686 205.638 251.662 218.699C253.79 219.763 262.6 223.027 271.254 225.913C294.264 233.658 303.074 239.431 305.658 248.391C310.442 264.795 298.139 276.792 276.419 276.792C265.938 276.868 256.903 273.831 250.598 268.364C247.637 265.704 244.068 259.173 244.068 256.367V254.469L234.043 255.076C228.501 255.382 223.789 255.759 223.638 255.91C223.412 256.061 223.713 258.491 224.245 261.377C227.132 277.023 239.812 289.401 258.117 294.336C266.927 296.69 287.281 296.69 295.936 294.336C304.896 291.906 311.581 288.031 317.274 282.033C325.858 272.842 329.351 262.365 327.68 250.213C326.239 239.351 322.82 232.364 315.603 225.683C308.39 218.926 302.919 216.266 279 207.988C262.139 202.144 252.726 196.602 249.685 190.755C245.278 182.251 250.066 171.087 260.015 166.68C270.345 162.123 287.126 162.806 297.532 168.122C300.037 169.412 302.089 170.325 302.165 170.249C302.24 170.099 303.685 166.148 305.352 161.44L308.465 152.857L306.111 151.336C302.542 149.133 296.694 147.085 290.163 145.794C283.783 144.429 268.217 144.278 261.913 145.417Z" fill="white"/>
</svg>
