<svg width="1000" height="1000" viewBox="0 0 1000 1000" fill="none" xmlns="http://www.w3.org/2000/svg">
<path d="M254.06 13.73C216.98 22.59 186.66 50.35 172.43 88.36C167.3 102.12 167.07 102.82 166.37 272.84L165.67 443.8H211.38H256.86V279.37V114.94L263.62 107.48L270.38 99.78L390.73 99.08L511.08 98.38V210.34C511.08 314.83 511.31 322.99 515.74 336.75C526.47 372.2 553.99 399.49 590.37 411.62C604.83 416.52 610.19 416.75 717.01 417.68L828.26 418.61V649.27C828.26 902.79 828.96 889.73 814.27 897.43C808.21 900.46 776.02 900.93 538.83 900.46L270.38 899.76L263.62 892.06C258.02 885.99 256.86 882.5 256.86 872.93V861.27H211.15H165.2L166.83 879.7C171.26 932.64 204.38 973.22 253.83 986.05C274.12 991.41 808.91 991.18 829.44 986.05C871.19 975.32 902.44 944.3 913.4 903.02C916.43 892.29 916.9 843.08 916.9 590.73V291.03L776.26 150.4L635.86 10.0001L451.61 10.23C302.81 10.47 264.79 10.93 254.06 13.73ZM721.69 326.72C642.16 327.19 615.8 326.49 611.84 324.39C599.94 318.09 599.71 316.69 599.71 204.28V99.79L712.83 212.91L825.95 326.03L721.69 326.72Z" fill="white"/>
<path d="M137.91 501.88C117.39 508.18 97.33 526.13 88.23 545.96C83.33 556.69 83.1 559.49 83.1 652.55V748.17L89.63 761.47C97.79 778.03 115.29 794.12 132.31 800.42C144.9 805.32 148.64 805.32 404.95 805.32C661.27 805.32 665 805.32 677.6 800.42C694.63 794.12 712.12 778.03 720.28 761.47L726.81 748.17V652.55C726.81 559.49 726.58 556.69 721.68 545.96C714.92 531.27 699.29 514.71 684.83 507.24L673.17 500.94L408.45 500.47C262.92 500.25 141.18 500.95 137.91 501.88ZM244.73 596.1C255.69 601.23 264.79 612.89 267.35 625.02L268.98 632.72H254.75C242.62 632.72 240.52 632.02 240.52 628.52C240.52 626.19 237.95 621.76 234.69 618.72C226.76 611.26 204.14 610.56 196.67 617.09C182.68 629.92 191.07 639.25 223.02 646.48C260.57 655.11 271.3 663.97 271.3 686.13C271.3 714.12 247.51 730.68 211.36 727.88C184.31 725.55 166.81 712.72 164.25 693.36L162.85 684.03H176.14C186.4 684.03 189.2 684.73 189.2 687.76C189.2 689.63 192.23 694.52 195.96 698.26C202.02 704.33 204.36 705.02 217.88 705.02C236.07 705.02 245.17 699.42 245.17 688.69C245.17 680.06 238.64 676.33 211.12 670.03C185.23 663.97 175.67 659.3 170.31 650.44C164.25 640.65 164.48 620.12 170.54 610.09C182.69 590.04 217.68 583.28 244.73 596.1ZM485.42 590.97C500.58 594.47 512.94 603.33 518.3 614.76C525.53 630.85 524.6 632.72 509.67 632.72C497.54 632.72 496.61 632.25 494.51 625.95C491.25 616.39 478.65 610.79 464.89 612.66C452.06 614.29 445.76 619.66 445.76 628.28C445.76 637.14 451.36 640.41 478.41 646.71C513.63 655.11 522.72 661.64 526.22 679.83C529.72 698.72 515.49 720.18 495.43 725.78C482.84 729.28 462.55 729.04 449.02 724.85C432 719.95 417.77 703.39 417.77 688.47C417.77 684.74 419.4 684.04 430.6 684.04C442.26 684.04 443.43 684.51 444.83 689.87C447.4 699.9 456.26 705.03 471.89 705.03C491.71 705.03 499.41 700.37 499.41 688.24C499.41 679.61 493.35 676.11 467.22 670.28C430.37 661.88 420.11 653.25 420.11 629.93C420.11 610.81 431.3 597.28 452.06 591.68C465.83 587.94 472.13 587.94 485.42 590.97ZM618.13 594.47C633.06 600.77 644.02 614.53 644.02 626.89C644.02 632.49 643.32 632.72 631.66 632.72C620.23 632.72 619.3 632.25 616.73 625.72C608.34 603.8 561.22 610.33 568.22 632.48C569.62 637.38 580.58 642.27 599.71 646.47C623.26 651.83 634 656.03 640.76 663.26C646.82 669.56 647.52 671.89 647.52 685.88C647.52 698.48 646.59 702.9 642.16 709.2C634.23 720.16 620.24 726.46 600.88 727.86C567.29 729.96 545.6 716.9 540.24 691.48L538.61 684.02H552.6C566.13 684.02 566.59 684.25 567.76 691.02C569.63 700.35 579.66 705.01 597.38 705.01C609.27 705.01 612.54 704.08 617.2 699.18C628.86 687.75 621.16 677.02 597.84 672.13C558.42 663.97 545.83 656.27 542.56 637.61C539.06 617.09 553.99 595.16 573.35 591.9C578.25 590.97 583.38 590.03 584.55 589.34C588.74 587.71 609.73 590.97 618.13 594.47ZM383.5 657.91C395.86 693.36 406.12 723.45 406.12 724.38C406.12 725.31 399.59 726.01 391.66 725.55L377.43 724.85L372.77 711.32L368.34 698.03H344.32H320.3L315.87 711.32L311.21 724.85L296.98 725.55C289.05 726.02 282.52 725.78 282.52 725.32C282.52 724.15 324.5 606.14 328 597.04C329.4 593.77 332.66 593.08 345.26 593.08H360.65L383.5 657.91Z" fill="white"/>
<path d="M335.46 649.98L327.06 674.7H344.32H361.58L353.42 650.91C349.22 638.08 345.02 626.89 344.56 626.42C344.09 625.96 339.89 636.45 335.46 649.98Z" fill="white"/>
</svg>
