<svg width="512" height="510" viewBox="0 0 512 510" fill="none" xmlns="http://www.w3.org/2000/svg">
<path d="M493.8 54.2L388.5 3.49999C376.2 -2.40001 361.7 0.0999937 352.1 9.69999L150.3 193.8L62.4 127.1C54.2 120.8 42.7 121.4 35.2 128.3L7 153.9C-2.3 162.3 -2.3 177 6.9 185.4L83.2 255L6.9 324.6C-2.3 333 -2.3 347.7 7 356.1L35.2 381.8C42.9 388.7 54.3 389.2 62.4 383L150.3 316.3L352.1 500.4C361.6 510 376.2 512.5 388.4 506.6L493.8 455.9C504.9 450.6 511.9 439.4 511.9 427.1V83C512 70.7 504.9 59.5 493.8 54.2ZM384.1 371.3L230.9 255L384.1 138.7V371.3Z" fill="white"/>
</svg>
